<?xml version="1.0" encoding="utf-8"?>
<svg version="1.1"
   xmlns="http://www.w3.org/2000/svg"
   xmlns:xlink="http://www.w3.org/1999/xlink" x="0px" y="0px" viewBox="0 0 1000 1000" enable-background="new 0 0 1000 1000" xml:space="preserve">
   <g>
      <g transform="translate(0.000000,363.000000) scale(0.100000,-0.100000)" fill="#58a058">
         <path d="M8736.6,2048.1c-29.4-11.8-1039-1037-2281.8-2317.1C5229.6-1533.4,4216.2-2568.4,4202.4-2572.3c-11.8-2-656.7,609.7-1433,1362.4C1993.1-457.2,1328.6,181.9,1293.3,213.3c-49,41.2-84.3,52.9-154.9,52.9h-92.1L815,27C81.8-735.5,64.2-759.1,119.1-886.5c15.7-35.3,837.1-844.9,2011.3-1981.9c1638.8-1585.9,1999.5-1925,2054.4-1934.9c47-7.8,90.2,0,150.9,29.4c64.7,31.3,760.6,739,2813.1,2856.2c2913,3005.2,2789.5,2869.9,2730.7,3001.3c-29.4,64.7-911.6,929.2-978.2,960.6C8838.6,2071.6,8807.2,2073.6,8736.6,2048.1z"/>
      </g>
   </g>
</svg>