<?xml version="1.0" encoding="UTF-8" standalone="no"?>
<svg
   xmlns:svg="http://www.w3.org/2000/svg"
   xmlns="http://www.w3.org/2000/svg"
   width="222"
   height="222"
   viewBox="0 0 222 222"
   version="1.1">
  <g
     transform="translate(-17,-17)">
    <path
       d="M 127.18464,238.99733 C 68.032376,238.58927 16.603609,189.49874 17.002303,127.13143 17.386028,67.118595 67.2554,16.591711 128.96312,17.002487 c 59.97142,0.398535 110.56878,50.180037 110.03266,111.166763 0.49666,60.43313 -50.34835,111.25518 -111.81114,110.82808 z m 0,0 C 68.032376,238.58927 16.603609,189.49874 17.002303,127.13143 17.386028,67.118595 67.2554,16.591711 128.96312,17.002487 c 59.97142,0.398535 110.56878,50.180037 110.03266,111.166763 0.49666,60.43313 -50.34835,111.25518 -111.81114,110.82808 z"
       fill="#8aaec3" />
    <path
       d="m 169.32732,127.95616 c -0.2846,5.29021 -4.90621,9.68306 -9.46111,8.91643 -0.0218,0 -0.0449,0 -0.0681,0 -5.04511,0.007 -9.13975,-4.0783 -9.14519,-9.12341 0.17157,-5.05872 4.36697,-9.04578 9.42706,-8.96 5.04511,0.0245 9.51966,4.288 9.24732,9.16698 z m -81.126129,51.264 c 1.902298,0.0558 3.805958,0.015 5.99966,0.015 v 13.78587 c -13.634723,2.30536 -24.866043,-1.56596 -27.622128,-13.0914 -0.943659,-4.23762 -1.523744,-8.54877 -1.73617,-12.88579 -0.292766,-4.59166 0.213787,-9.23506 -0.13617,-13.81855 C 63.736851,140.61318 62.102809,136.30748 50,135.71105 v -15.69634 c 0.867404,-0.20289 1.747064,-0.35268 2.63217,-0.45208 6.635575,-0.32681 9.432511,-2.36119 10.916766,-8.89736 0.675404,-3.67251 1.075745,-7.38996 1.194213,-11.122386 0.525617,-7.217021 0.339064,-14.551149 1.541447,-21.651064 1.737532,-10.267234 8.111659,-15.255149 18.64034,-15.813447 2.995745,-0.160681 6.001021,-0.02451 9.395745,-0.02451 v 14.090893 c -1.397107,0.09941 -2.677107,0.302298 -3.948936,0.264171 -8.580085,-0.262809 -9.024,2.659404 -9.650383,9.762042 -0.390809,4.454128 0.148425,8.984511 -0.155234,13.453617 -0.317277,4.447324 -0.912341,8.871494 -1.781107,13.245274 -1.237787,6.33873 -5.134978,11.05294 -10.535489,15.05362 10.483745,6.82213 11.676596,17.42298 12.357447,28.18723 0.366298,5.78451 0.198808,11.60988 0.785702,17.36579 0.457532,4.46775 2.195064,5.60749 6.80851,5.74366 z m 8.836086,-60.43098 c 0.05447,0 0.107574,0 0.162042,0 5.012421,0.0831 9.010381,4.21311 8.927321,9.22689 0,0.16477 -0.005,0.32818 -0.015,0.49158 -0.28187,4.8994 -4.48136,8.64136 -9.380766,8.35949 -0.197447,0.004 -0.393532,0 -0.590979,-0.01 -4.989277,-0.24783 -8.833362,-4.49362 -8.585532,-9.4829 0.24783,-4.98927 4.493617,-8.83336 9.482894,-8.58553 z m 31.236083,0 c 5.48221,-0.0422 9.12341,3.51047 9.152,8.93004 0.03,5.56528 -3.42196,9.12613 -8.86876,9.14928 -5.53941,0.0245 -9.18605,-3.47915 -9.216,-8.86604 -0.0163,-0.27506 -0.0204,-0.55013 -0.0123,-0.82519 0.15387,-4.78639 4.15864,-8.54196 8.94502,-8.38809 z m 65.39983,-6.8657 c 1.45838,5.44681 4.29753,7.36136 10.03166,7.62281 0.93958,0.0436 1.87506,0.20289 3.16323,0.34587 v 15.69226 c -0.69719,0.22876 -1.41208,0.40034 -2.13787,0.512 -7.68408,0.47795 -11.18638,3.63029 -11.96255,11.3348 -0.49566,4.91847 -0.45481,9.89141 -0.79523,14.82758 -0.14298,5.41957 -0.63592,10.82417 -1.47609,16.17974 -1.96085,9.70349 -8.01906,14.54434 -18.02894,15.13532 -3.22178,0.19064 -6.46672,0.03 -9.94042,0.03 v -14.02553 c 1.86962,-0.11575 3.52,-0.27507 5.17447,-0.31456 5.98059,-0.14297 8.09532,-2.07114 8.38808,-8.01089 0.32409,-6.52528 0.4657,-13.05872 0.75711,-19.58536 0.42349,-9.43387 3.00664,-17.86145 11.79506,-23.74536 -5.02876,-3.58536 -9.06621,-7.92783 -10.112,-13.78315 -1.26502,-7.09719 -1.67353,-14.35098 -2.35438,-21.547575 -0.33634,-3.597617 -0.32,-7.226554 -0.67132,-10.821447 -0.37855,-3.880851 -3.04477,-5.22349 -6.57702,-5.310638 -2.02349,-0.04902 -4.05515,-0.0095 -6.64238,-0.0095 v -13.696 c 16.50927,-2.741107 27.91353,2.752 28.97293,18.547744 0.44392,6.632851 0.37855,13.297022 0.80341,19.929876 0.18655,3.60851 0.72578,7.18978 1.61225,10.69208 z"
       fill="#ffffff" />
  </g>
</svg>
