<?xml version="1.0" encoding="UTF-8" standalone="no"?>
<svg
   xmlns:dc="http://purl.org/dc/elements/1.1/"
   xmlns:cc="http://creativecommons.org/ns#"
   xmlns:rdf="http://www.w3.org/1999/02/22-rdf-syntax-ns#"
   xmlns:svg="http://www.w3.org/2000/svg"
   xmlns="http://www.w3.org/2000/svg"
   xmlns:sodipodi="http://sodipodi.sourceforge.net/DTD/sodipodi-0.dtd"
   xmlns:inkscape="http://www.inkscape.org/namespaces/inkscape"
   version="1.1"
   viewBox="0 0 211.67999 211.67999"
   width="211.67999"
   height="211.67999"
   id="svg4"
   sodipodi:docname="icon-info.svg"
   inkscape:version="1.0.2-2 (e86c870879, 2021-01-15)">
  <metadata
     id="metadata10">
    <rdf:RDF>
      <cc:Work
         rdf:about="">
        <dc:format>image/svg+xml</dc:format>
        <dc:type
           rdf:resource="http://purl.org/dc/dcmitype/StillImage" />
        <dc:title></dc:title>
      </cc:Work>
    </rdf:RDF>
  </metadata>
  <defs
     id="defs8" />
  <sodipodi:namedview
     pagecolor="#ffffff"
     bordercolor="#666666"
     borderopacity="1"
     objecttolerance="10"
     gridtolerance="10"
     guidetolerance="10"
     inkscape:pageopacity="0"
     inkscape:pageshadow="2"
     inkscape:window-width="707"
     inkscape:window-height="480"
     id="namedview6"
     showgrid="false"
     fit-margin-top="0"
     fit-margin-left="0"
     fit-margin-right="0"
     fit-margin-bottom="0"
     inkscape:zoom="3.7890625"
     inkscape:cx="105.84"
     inkscape:cy="105.842"
     inkscape:window-x="0"
     inkscape:window-y="0"
     inkscape:window-maximized="0"
     inkscape:current-layer="svg4" />
  <path
     d="M 105.84,0 A 105.84,105.84 0 0 0 0,105.84 105.84,105.84 0 0 0 105.84,211.68 105.84,105.84 0 0 0 211.68,105.84 105.84,105.84 0 0 0 105.84,0 Z m 0,32.76 c 5.16,0.117 9.55,1.875 13.18,5.273 3.34,3.575 5.07,7.94 5.19,13.096 -0.12,5.156 -1.85,9.404 -5.19,12.744 -3.63,3.75 -8.02,5.625 -13.18,5.625 -5.16,0 -9.4,-1.875 -12.74,-5.625 -3.75,-3.34 -5.63,-7.588 -5.63,-12.744 0,-5.156 1.88,-9.521 5.63,-13.096 3.34,-3.398 7.58,-5.156 12.74,-5.273 z M 89.49,86.552 h 32.79 v 92.37 H 89.49 Z"
     fill-rule="evenodd"
     fill="#72a7cf"
     id="path2" />
</svg>
