<?xml version="1.0" encoding="UTF-8" standalone="no"?>
<!-- Generator: Adobe Illustrator 18.0.0, SVG Export Plug-In . SVG Version: 6.00 Build 0)  -->

<svg
   version="1.1"
   id="Capa_1"
   x="0px"
   y="0px"
   viewBox="0 0 43 56"
   xml:space="preserve"
   sodipodi:docname="icon-gml.svg"
   width="43"
   height="56"
   inkscape:version="1.1.1 (3bf5ae0d25, 2021-09-20)"
   xmlns:inkscape="http://www.inkscape.org/namespaces/inkscape"
   xmlns:sodipodi="http://sodipodi.sourceforge.net/DTD/sodipodi-0.dtd"
   xmlns="http://www.w3.org/2000/svg"
   xmlns:svg="http://www.w3.org/2000/svg"><defs
   id="defs61"><rect
   x="15.076923"
   y="31.971153"
   width="6.3269229"
   height="6.4615383"
   id="rect50365" /><rect
   x="14.067308"
   y="28.807692"
   width="15.682692"
   height="8.75"
   id="rect26015" />
	
	
	
	
	
	
	
	
	

		
		
		
	</defs><sodipodi:namedview
   id="namedview59"
   pagecolor="#ffffff"
   bordercolor="#666666"
   borderopacity="1.0"
   inkscape:pageshadow="2"
   inkscape:pageopacity="0.0"
   inkscape:pagecheckerboard="0"
   showgrid="false"
   fit-margin-top="0"
   fit-margin-left="0"
   fit-margin-right="0"
   fit-margin-bottom="0"
   inkscape:zoom="3.7142857"
   inkscape:cx="-17.365385"
   inkscape:cy="-4.1730769"
   inkscape:window-width="3840"
   inkscape:window-height="1137"
   inkscape:window-x="-8"
   inkscape:window-y="-8"
   inkscape:window-maximized="1"
   inkscape:current-layer="Capa_1" />
<path
   style="fill:#e9e9e0"
   d="M 30.484999,0 H 1.463 C 0.655,0 0,0.655 0,1.926 V 55 c 0,0.345 0.655,1 1.463,1 H 41.536999 C 42.344999,56 43,55.345 43,55 V 12.978 c 0,-0.696 -0.093,-0.92 -0.257,-1.085 L 31.107,0.257 C 30.942,0.093 30.717999,0 30.484999,0 Z"
   id="path2" /><polygon
   style="fill:#d9d7ca"
   points="37.5,0.151 37.5,12 49.349,12 "
   id="polygon4"
   transform="translate(-6.5)" /><path
   style="fill:#007735;fill-opacity:1"
   d="M 41.536999,56 H 1.463 C 0.655,56 0,55.345 0,54.537 V 39 h 42.999999 v 15.537 c 0,0.808 -0.655,1.463 -1.463,1.463 z"
   id="path6" /><path
   style="fill:#007735;fill-opacity:1"
   d="m 8.9999995,24 c -0.256,0 -0.512,-0.098 -0.707,-0.293 -0.391,-0.391 -0.391,-1.023 0,-1.414 l 5.9999995,-6 c 0.391,-0.391 1.023,-0.391 1.414,0 0.391,0.391 0.391,1.023 0,1.414 l -5.9999995,6 c -0.195,0.195 -0.451,0.293 -0.707,0.293 z"
   id="path16" /><path
   style="fill:#007735;fill-opacity:1"
   d="m 15,30 c -0.256,0 -0.512,-0.098 -0.707,-0.293 l -6.0000005,-6 c -0.391,-0.391 -0.391,-1.023 0,-1.414 0.391,-0.391 1.023,-0.391 1.414,0 l 6.0000005,6 c 0.391,0.391 0.391,1.023 0,1.414 C 15.512,29.902 15.256,30 15,30 Z"
   id="path18" /><path
   style="fill:#007735;fill-opacity:1"
   d="m 26.999999,30 c -0.256,0 -0.512,-0.098 -0.707,-0.293 -0.391,-0.391 -0.391,-1.023 0,-1.414 l 6,-6 c 0.391,-0.391 1.023,-0.391 1.414,0 0.391,0.391 0.391,1.023 0,1.414 l -6,6 c -0.195,0.195 -0.451,0.293 -0.707,0.293 z"
   id="path20" /><path
   style="fill:#007735;fill-opacity:1"
   d="m 32.999999,24 c -0.256,0 -0.512,-0.098 -0.707,-0.293 l -6,-6 c -0.391,-0.391 -0.391,-1.023 0,-1.414 0.391,-0.391 1.023,-0.391 1.414,0 l 6,6 c 0.391,0.391 0.391,1.023 0,1.414 -0.195,0.195 -0.451,0.293 -0.707,0.293 z"
   id="path22" /><path
   style="fill:#007735;fill-opacity:1"
   d="m 18,32 c -0.11,0 -0.223,-0.019 -0.333,-0.058 -0.521,-0.184 -0.794,-0.755 -0.61,-1.276 l 6,-17 c 0.185,-0.521 0.753,-0.795 1.276,-0.61 0.521,0.184 0.794,0.755 0.61,1.276 l -6,17 C 18.798,31.744 18.412,32 18,32 Z"
   id="path24" />
<g
   id="g28"
   transform="translate(-9.125,2.2884615)">
</g>
<g
   id="g30"
   transform="translate(-9.125,2.2884615)">
</g>
<g
   id="g32"
   transform="translate(-9.125,2.2884615)">
</g>
<g
   id="g34"
   transform="translate(-9.125,2.2884615)">
</g>
<g
   id="g36"
   transform="translate(-9.125,2.2884615)">
</g>
<g
   id="g38"
   transform="translate(-9.125,2.2884615)">
</g>
<g
   id="g40"
   transform="translate(-9.125,2.2884615)">
</g>
<g
   id="g42"
   transform="translate(-9.125,2.2884615)">
</g>
<g
   id="g44"
   transform="translate(-9.125,2.2884615)">
</g>
<g
   id="g46"
   transform="translate(-9.125,2.2884615)">
</g>
<g
   id="g48"
   transform="translate(-9.125,2.2884615)">
</g>
<g
   id="g50"
   transform="translate(-9.125,2.2884615)">
</g>
<g
   id="g52"
   transform="translate(-9.125,2.2884615)">
</g>
<g
   id="g54"
   transform="translate(-9.125,2.2884615)">
</g>
<g
   id="g56"
   transform="translate(-9.125,2.2884615)">
</g>
<text
   xml:space="preserve"
   id="text26013"
   style="font-size:5.33333px;line-height:1.25;font-family:sans-serif;white-space:pre;shape-inside:url(#rect26015)"
   transform="translate(-9.125,2.2884615)" /><text
   xml:space="preserve"
   id="text50363"
   style="font-size:5.33333px;line-height:1.25;font-family:sans-serif;white-space:pre;shape-inside:url(#rect50365)"
   transform="translate(-9.125,2.2884615)" /></svg>
