<?xml version="1.0" encoding="UTF-8" standalone="no"?>
<svg
   xmlns:dc="http://purl.org/dc/elements/1.1/"
   xmlns:cc="http://creativecommons.org/ns#"
   xmlns:rdf="http://www.w3.org/1999/02/22-rdf-syntax-ns#"
   xmlns:svg="http://www.w3.org/2000/svg"
   xmlns="http://www.w3.org/2000/svg"
   xmlns:sodipodi="http://sodipodi.sourceforge.net/DTD/sodipodi-0.dtd"
   xmlns:inkscape="http://www.inkscape.org/namespaces/inkscape"
   version="1.1"
   id="Capa_1"
   x="0px"
   y="0px"
   viewBox="0 0 43 56"
   xml:space="preserve"
   sodipodi:docname="xml-svgrepo-com.svg"
   width="43"
   height="56"
   inkscape:version="1.0.2-2 (e86c870879, 2021-01-15)"><metadata
   id="metadata55"><rdf:RDF><cc:Work
       rdf:about=""><dc:format>image/svg+xml</dc:format><dc:type
         rdf:resource="http://purl.org/dc/dcmitype/StillImage" /><dc:title></dc:title></cc:Work></rdf:RDF></metadata><defs
   id="defs53" /><sodipodi:namedview
   pagecolor="#ffffff"
   bordercolor="#666666"
   borderopacity="1"
   objecttolerance="10"
   gridtolerance="10"
   guidetolerance="10"
   inkscape:pageopacity="0"
   inkscape:pageshadow="2"
   inkscape:window-width="1919"
   inkscape:window-height="1128"
   id="namedview51"
   showgrid="false"
   fit-margin-top="0"
   fit-margin-left="0"
   fit-margin-right="0"
   fit-margin-bottom="0"
   inkscape:zoom="1.0825893"
   inkscape:cx="-0.91234776"
   inkscape:cy="138.12333"
   inkscape:window-x="952"
   inkscape:window-y="0"
   inkscape:window-maximized="0"
   inkscape:current-layer="Capa_1" />
<g
   id="g18"
   transform="translate(-6.5)">
	<path
   style="fill:#e9e9e0"
   d="M 36.985,0 H 7.963 C 7.155,0 6.5,0.655 6.5,1.926 V 55 c 0,0.345 0.655,1 1.463,1 H 48.037 C 48.845,56 49.5,55.345 49.5,55 V 12.978 c 0,-0.696 -0.093,-0.92 -0.257,-1.085 L 37.607,0.257 C 37.442,0.093 37.218,0 36.985,0 Z"
   id="path2" />
	<polygon
   style="fill:#d9d7ca"
   points="49.349,12 37.5,0.151 37.5,12 "
   id="polygon4" />
	<path
   style="fill:#f29c1f"
   d="M 48.037,56 H 7.963 C 7.155,56 6.5,55.345 6.5,54.537 V 39 h 43 V 54.537 C 49.5,55.345 48.845,56 48.037,56 Z"
   id="path6" />

	<path
   style="fill:#f29c1f"
   d="m 15.5,24 c -0.256,0 -0.512,-0.098 -0.707,-0.293 -0.391,-0.391 -0.391,-1.023 0,-1.414 l 6,-6 c 0.391,-0.391 1.023,-0.391 1.414,0 0.391,0.391 0.391,1.023 0,1.414 l -6,6 C 16.012,23.902 15.756,24 15.5,24 Z"
   id="path8" />
	<path
   style="fill:#f29c1f"
   d="m 21.5,30 c -0.256,0 -0.512,-0.098 -0.707,-0.293 l -6,-6 c -0.391,-0.391 -0.391,-1.023 0,-1.414 0.391,-0.391 1.023,-0.391 1.414,0 l 6,6 c 0.391,0.391 0.391,1.023 0,1.414 C 22.012,29.902 21.756,30 21.5,30 Z"
   id="path10" />
	<path
   style="fill:#f29c1f"
   d="m 33.5,30 c -0.256,0 -0.512,-0.098 -0.707,-0.293 -0.391,-0.391 -0.391,-1.023 0,-1.414 l 6,-6 c 0.391,-0.391 1.023,-0.391 1.414,0 0.391,0.391 0.391,1.023 0,1.414 l -6,6 C 34.012,29.902 33.756,30 33.5,30 Z"
   id="path12" />
	<path
   style="fill:#f29c1f"
   d="m 39.5,24 c -0.256,0 -0.512,-0.098 -0.707,-0.293 l -6,-6 c -0.391,-0.391 -0.391,-1.023 0,-1.414 0.391,-0.391 1.023,-0.391 1.414,0 l 6,6 c 0.391,0.391 0.391,1.023 0,1.414 C 40.012,23.902 39.756,24 39.5,24 Z"
   id="path14" />
	<path
   style="fill:#f29c1f"
   d="m 24.5,32 c -0.11,0 -0.223,-0.019 -0.333,-0.058 -0.521,-0.184 -0.794,-0.755 -0.61,-1.276 l 6,-17 c 0.185,-0.521 0.753,-0.795 1.276,-0.61 0.521,0.184 0.794,0.755 0.61,1.276 l -6,17 C 25.298,31.744 24.912,32 24.5,32 Z"
   id="path16" />
</g>
<g
   id="g20"
   transform="translate(-6.5)">
</g>
<g
   id="g22"
   transform="translate(-6.5)">
</g>
<g
   id="g24"
   transform="translate(-6.5)">
</g>
<g
   id="g26"
   transform="translate(-6.5)">
</g>
<g
   id="g28"
   transform="translate(-6.5)">
</g>
<g
   id="g30"
   transform="translate(-6.5)">
</g>
<g
   id="g32"
   transform="translate(-6.5)">
</g>
<g
   id="g34"
   transform="translate(-6.5)">
</g>
<g
   id="g36"
   transform="translate(-6.5)">
</g>
<g
   id="g38"
   transform="translate(-6.5)">
</g>
<g
   id="g40"
   transform="translate(-6.5)">
</g>
<g
   id="g42"
   transform="translate(-6.5)">
</g>
<g
   id="g44"
   transform="translate(-6.5)">
</g>
<g
   id="g46"
   transform="translate(-6.5)">
</g>
<g
   id="g48"
   transform="translate(-6.5)">
</g>
</svg>
