<?xml version="1.0" encoding="UTF-8" standalone="no"?>
<svg version="1.1" viewBox="0 0 43 56" xml:space="preserve" width="43" height="56"
   xmlns="http://www.w3.org/2000/svg"
   xmlns:svg="http://www.w3.org/2000/svg">
   <path style="fill:#e9e9e0" d="M 30.485,0 H 1.463 C 0.655,0 0,0.655 0,1.926 V 55 c 0,0.345 0.655,1 1.463,1 H 41.537 C 42.345,56 43,55.345 43,55 V 12.978 c 0,-0.696 -0.093,-0.92 -0.257,-1.085 L 31.107,0.257 C 30.942,0.093 30.718,0 30.485,0 Z" id="path2" />
   <polygon style="fill:#d9d7ca" points="37.5,12 49.349,12 37.5,0.151 " id="polygon4" transform="translate(-6.5)" />
   <path style="fill:#9777a8" d="M 41.537,56 H 1.463 C 0.655,56 0,55.345 0,54.537 V 39 H 43 V 54.537 C 43,55.345 42.345,56 41.537,56 Z" id="path6" />
   <g id="g26" transform="translate(-6.5)">
      <path style="fill:#9777a8" d="m 19.5,19 v -4 c 0,-0.551 0.448,-1 1,-1 0.553,0 1,-0.448 1,-1 0,-0.552 -0.447,-1 -1,-1 -1.654,0 -3,1.346 -3,3 v 4 c 0,1.103 -0.897,2 -2,2 -0.553,0 -1,0.448 -1,1 0,0.552 0.447,1 1,1 1.103,0 2,0.897 2,2 v 4 c 0,1.654 1.346,3 3,3 0.553,0 1,-0.448 1,-1 0,-0.552 -0.447,-1 -1,-1 -0.552,0 -1,-0.449 -1,-1 v -4 c 0,-1.2 -0.542,-2.266 -1.382,-3 0.84,-0.734 1.382,-1.8 1.382,-3 z" id="path18" />
      <circle style="fill:#9777a8" cx="27.5" cy="18.5" r="1.5" id="circle20" />
      <path style="fill:#9777a8" d="m 39.5,21 c -1.103,0 -2,-0.897 -2,-2 v -4 c 0,-1.654 -1.346,-3 -3,-3 -0.553,0 -1,0.448 -1,1 0,0.552 0.447,1 1,1 0.552,0 1,0.449 1,1 v 4 c 0,1.2 0.542,2.266 1.382,3 -0.84,0.734 -1.382,1.8 -1.382,3 v 4 c 0,0.551 -0.448,1 -1,1 -0.553,0 -1,0.448 -1,1 0,0.552 0.447,1 1,1 1.654,0 3,-1.346 3,-3 v -4 c 0,-1.103 0.897,-2 2,-2 0.553,0 1,-0.448 1,-1 0,-0.552 -0.447,-1 -1,-1 z" id="path22" />
      <path style="fill:#9777a8" d="m 27.5,24 c -0.553,0 -1,0.448 -1,1 v 3 c 0,0.552 0.447,1 1,1 0.553,0 1,-0.448 1,-1 v -3 c 0,-0.552 -0.447,-1 -1,-1 z" id="path24" />
   </g>
   <g id="g30" transform="translate(-6.5)">
   </g>
   <g id="g32" transform="translate(-6.5)">
   </g>
   <g id="g34" transform="translate(-6.5)">
   </g>
   <g id="g36" transform="translate(-6.5)">
   </g>
   <g id="g38" transform="translate(-6.5)">
   </g>
   <g id="g40" transform="translate(-6.5)">
   </g>
   <g id="g42" transform="translate(-6.5)">
   </g>
   <g id="g44" transform="translate(-6.5)">
   </g>
   <g id="g46" transform="translate(-6.5)">
   </g>
   <g id="g48" transform="translate(-6.5)">
   </g>
   <g id="g50" transform="translate(-6.5)">
   </g>
   <g id="g52" transform="translate(-6.5)">
   </g>
   <g id="g54" transform="translate(-6.5)">
   </g>
   <g id="g56" transform="translate(-6.5)">
   </g>
   <g id="g58" transform="translate(-6.5)">
   </g>
</svg>
