<?xml version="1.0" encoding="UTF-8" standalone="no"?>
<svg
   xmlns:dc="http://purl.org/dc/elements/1.1/"
   xmlns:cc="http://creativecommons.org/ns#"
   xmlns:rdf="http://www.w3.org/1999/02/22-rdf-syntax-ns#"
   xmlns:svg="http://www.w3.org/2000/svg"
   xmlns="http://www.w3.org/2000/svg"
   xmlns:sodipodi="http://sodipodi.sourceforge.net/DTD/sodipodi-0.dtd"
   xmlns:inkscape="http://www.inkscape.org/namespaces/inkscape"
   id="Layer_1"
   data-name="Layer 1"
   viewBox="0 0 350.00001 54.4818"
   version="1.1"
   sodipodi:docname="logo-geonorge.svg"
   width="350"
   height="54.4818"
   inkscape:version="1.0.2-2 (e86c870879, 2021-01-15)">
  <metadata
     id="metadata39">
    <rdf:RDF>
      <cc:Work
         rdf:about="">
        <dc:format>image/svg+xml</dc:format>
        <dc:type
           rdf:resource="http://purl.org/dc/dcmitype/StillImage" />
        <dc:title>Artboard 1</dc:title>
      </cc:Work>
    </rdf:RDF>
  </metadata>
  <sodipodi:namedview
     pagecolor="#ffffff"
     bordercolor="#666666"
     borderopacity="1"
     objecttolerance="10"
     gridtolerance="10"
     guidetolerance="10"
     inkscape:pageopacity="0"
     inkscape:pageshadow="2"
     inkscape:window-width="1919"
     inkscape:window-height="1128"
     id="namedview37"
     showgrid="false"
     fit-margin-top="0"
     fit-margin-left="0"
     fit-margin-right="0"
     fit-margin-bottom="0"
     inkscape:zoom="2.5101781"
     inkscape:cx="207.55499"
     inkscape:cy="27.481799"
     inkscape:window-x="952"
     inkscape:window-y="0"
     inkscape:window-maximized="0"
     inkscape:current-layer="Layer_1" />
  <defs
     id="defs4">
    <style
       id="style2">.__1td2xJy__cls-1{fill:#4d4d4f;}.__1td2xJy__cls-2{fill:#a6a8ab;}.__1td2xJy__cls-3{fill:#bbbdbf;}.__1td2xJy__cls-4{fill:#6d6e70;}.__1td2xJy__cls-5{fill:#929497;}.__1td2xJy__cls-6{fill:#fe5000;}.__1td2xJy__cls-7{fill:#404041;}</style>
  </defs>
  <title
     id="title6">Artboard 1</title>
  <polygon
     class="__1td2xJy__cls-1 "
     points="0,42.4 20.9,30.4 20.9,54.5 "
     id="polygon8"
     transform="translate(0,-0.01820064)" />
  <polygon
     class="__1td2xJy__cls-2 "
     points="0,18.3 20.9,6.3 20.9,30.4 "
     id="polygon10"
     transform="translate(0,-0.01820064)" />
  <polyline
     class="__1td2xJy__cls-3 "
     points="20.9 30.4 41.8 42.4 41.8 18.3 20.9 30.4"
     id="polyline12"
     transform="translate(0,-0.01820064)" />
  <polyline
     class="__1td2xJy__cls-4 "
     points="20.9 30.4 0 42.4 0 18.3 20.9 30.4"
     id="polyline14"
     transform="translate(0,-0.01820064)" />
  <polyline
     class="__1td2xJy__cls-5 "
     points="20.9 30.4 20.9 54.5 41.8 42.4 20.9 30.4"
     id="polyline16"
     transform="translate(0,-0.01820064)" />
  <path
     class="__1td2xJy__cls-6 "
     d="m 24.5,9.0817994 a 8.08,8.08 0 0 1 1.2,-4.7 8.7817994,8.7817994 0 0 1 15.2,8.7999996 9.49,9.49 0 0 1 -3.5,3.4 l -12.9,7.4 z m 13,2.0999996 a 4.8,4.8 0 0 0 -1.8,-6.6999996 4.93,4.93 0 0 0 -6.7,1.8 4.84,4.84 0 0 0 -0.7,2.6 5,5 0 0 0 2.5,4.0999996 4.84,4.84 0 0 0 4.8,0.1 3.9,3.9 0 0 0 1.9,-1.9 z"
     id="path18" />
  <path
     class="__1td2xJy__cls-7 "
     d="m 274.2,48.681799 h 4.6 c 0.2,0 0.3,-0.2 0.4,-0.3 0.1,-0.1 0.1,-0.2 0,-0.2 -0.8,-1.6 -5.2,-10.2 -6.6,-12.8 l -0.1,-0.3 0.3,-0.1 a 9.48,9.48 0 0 0 2.7,-1.7 11,11 0 0 0 3.3,-5.8 12.47,12.47 0 0 0 0.1,-4.7 10.29,10.29 0 0 0 -4.1,-6.7 9.75,9.75 0 0 0 -5.1,-1.9 h -16.4 c -0.6,0 -0.7,0.1 -0.7,0.7 v 33 c 0,0.6 0.1,0.7 0.7,0.7 h 5 c 0.6,0 0.7,-0.1 0.7,-0.7 v -12.1 h 5.7 a 0.87,0.87 0 0 1 0.9,0.5 c 0.1,0.2 0.9,1.7 1.8,3.6 1.3,2.6 3.1,6.1 4.1,8 a 1.16,1.16 0 0 0 1.2,0.8 z m -15.2,-18.8 v -9.9 h 9.2 a 4.27,4.27 0 0 1 4.1,3.3 6.65,6.65 0 0 1 -0.2,4.2 3.84,3.84 0 0 1 -3.6,2.5 v 0 z"
     id="path20" />
  <path
     class="__1td2xJy__cls-7 "
     d="m 104.6,14.181799 c -0.6,0 -0.7,0.1 -0.7,0.7 v 33 c 0,0.6 0.1,0.7 0.7,0.7 H 127 c 0.6,0 0.7,-0.1 0.7,-0.7 v -4.3 c 0,-0.6 -0.1,-0.7 -0.7,-0.7 h -16.7 v -8.7 h 13.3 c 0.6,0 0.7,-0.1 0.7,-0.7 v -4.1 c 0,-0.6 -0.1,-0.7 -0.7,-0.7 h -13.3 v -8.7 H 127 c 0.6,0 0.7,-0.1 0.7,-0.7 v -4.3 c 0,-0.6 -0.1,-0.7 -0.7,-0.7 h -22.4 z"
     id="path22" />
  <path
     class="__1td2xJy__cls-7 "
     d="m 326.9,14.181799 c -0.6,0 -0.7,0.1 -0.7,0.7 v 33 c 0,0.6 0.1,0.7 0.7,0.7 h 22.4 c 0.6,0 0.7,-0.1 0.7,-0.7 v -4.3 c 0,-0.6 -0.1,-0.7 -0.7,-0.7 h -16.7 v -8.7 h 13.3 c 0.6,0 0.7,-0.1 0.7,-0.7 v -4.1 c 0,-0.6 -0.1,-0.7 -0.7,-0.7 h -13.3 v -8.7 h 16.7 c 0.6,0 0.7,-0.1 0.7,-0.7 v -4.3 c 0,-0.6 -0.1,-0.7 -0.7,-0.7 h -22.4 z"
     id="path24" />
  <path
     class="__1td2xJy__cls-7 "
     d="m 149.7,13.781799 a 17.7,17.7 0 1 0 17.6,17.7 17.65,17.65 0 0 0 -17.6,-17.7 z m 0,29.5 c -6.2,0 -11.2,-5.3 -11.2,-11.9 0,-6.6 5,-11.9 11.2,-11.9 6.2,0 11.2,5.3 11.2,11.9 0,6.6 -5,11.9 -11.2,11.9 z"
     id="path26" />
  <path
     class="__1td2xJy__cls-7 "
     d="m 228.2,13.781799 a 17.7,17.7 0 1 0 17.6,17.7 17.65,17.65 0 0 0 -17.6,-17.7 z m 0,29.5 c -6.2,0 -11.2,-5.3 -11.2,-11.8 0,-6.5 5,-11.9 11.2,-11.9 6.2,0 11.2,5.3 11.2,11.9 0,6.6 -5,11.8 -11.2,11.8 z"
     id="path28" />
  <path
     class="__1td2xJy__cls-7 "
     d="m 80.2,13.781799 a 17.7,17.7 0 1 0 17.6,17.7 v -2.1 c 0,-0.6 -0.1,-0.7 -0.7,-0.7 H 79.6 c -0.6,0 -0.7,0.1 -0.7,0.7 v 4.1 c 0,0.3 0,0.5 0.1,0.6 0.1,0.1 0.3,0.1 0.6,0.1 h 11.5 l -0.1,0.6 a 11.38,11.38 0 0 1 -10.8,8.5 c -6.1,0 -11.2,-5.3 -11.2,-11.8 0,-6.5 5,-11.9 11.2,-11.9 a 10.91,10.91 0 0 1 7.3,2.8 c 0.5,0.5 0.7,0.5 1.1,0 l 3.2,-3.2 c 0.5,-0.5 0.5,-0.6 0,-1.1 a 17.53,17.53 0 0 0 -11.6,-4.3 z"
     id="path30" />
  <path
     class="__1td2xJy__cls-7 "
     d="m 302.6,13.781799 a 17.7,17.7 0 1 0 17.6,17.7 v -2.1 c 0,-0.6 -0.1,-0.7 -0.7,-0.7 H 302 c -0.6,0 -0.7,0.1 -0.7,0.7 v 4.1 c 0,0.3 0,0.5 0.1,0.6 0.1,0.1 0.3,0.1 0.6,0.1 h 11.5 l -0.1,0.6 a 11.38,11.38 0 0 1 -10.8,8.5 c -6.2,0 -11.2,-5.3 -11.2,-11.9 0,-6.6 5,-11.9 11.2,-11.9 a 10.91,10.91 0 0 1 7.3,2.8 c 0.5,0.5 0.7,0.5 1.1,0 l 3.2,-3.2 c 0.5,-0.5 0.5,-0.6 0,-1.1 a 18.16,18.16 0 0 0 -11.6,-4.2 z"
     id="path32" />
  <path
     class="__1td2xJy__cls-7 "
     d="m 180.9,25.981799 c 0.1,0 0.1,0 0.2,0.1 2.2,1.4 12.7,8.3 15.6,10.2 a 1.25,1.25 0 0 1 0.6,1.1 v 10.7 c 0,0.6 0.1,0.7 0.7,0.7 h 5 c 0.6,0 0.7,-0.1 0.7,-0.7 v -33 c 0,-0.6 -0.1,-0.7 -0.7,-0.7 h -5 c -0.6,0 -0.7,0.1 -0.7,0.7 v 14.2 l -22.5,-15.2 a 0.76,0.76 0 0 0 -0.4,-0.1 0.52,0.52 0 0 0 -0.2,0.4 v 33.7 c 0,0.6 0.1,0.7 0.7,0.7 h 5 c 0.6,0 0.7,-0.1 0.7,-0.7 v -22.1 z"
     id="path34" />
</svg>
